<svg width="297" height="353" viewBox="0 0 297 353" fill="none" xmlns="http://www.w3.org/2000/svg">
<path d="M296.984 62.8049L235.444 0.978271L185.545 51.5875H122.058L87.2596 86.879H54.2075V157.58H0.0546875V352.915H221.577L221.983 157.58H168.196V139.816H221.577L296.984 62.8049ZM235.503 25.8741L272.383 62.9261L238.329 97.8106L201.453 60.4092L235.503 25.8741ZM71.6058 104.525H118.851C117.886 107.286 117.355 110.255 117.355 113.348C117.355 120.701 120.329 127.361 125.119 132.163L104.759 152.812L91.0831 138.942L78.7808 151.42L104.759 177.767L142.209 139.785C142.621 139.805 143.036 139.816 143.453 139.816H150.798V192.871H71.6058V104.525ZM204.584 335.372H17.453V245.808H204.584V335.372ZM204.584 175.225V228.163H17.453V175.225H54.2075V192.871H34.8037V210.517H187.159V192.871H168.196V175.225H204.584ZM214.371 122.171H143.453C138.656 122.171 134.753 118.213 134.753 113.348C134.753 108.483 138.656 104.525 143.453 104.525H177.517V86.879H111.865L129.265 69.2332H185.547L226.057 110.319L214.371 122.171Z" fill="black"/>
</svg>
